<svg xmlns="http://www.w3.org/2000/svg" version="1.1" xmlns:xlink="http://www.w3.org/1999/xlink" width="512" height="512" x="0" y="0" viewBox="0 0 512 512" style="enable-background:new 0 0 512 512" xml:space="preserve" class=""><g><path d="M35.31 406.069v35.31c0 9.754 7.901 17.655 17.655 17.655h35.31c9.754 0 17.655-7.901 17.655-17.655v-35.31H35.31z" style="" fill="#555160" data-original="#555160"></path><path d="M52.966 176.552 5.173 224.344A17.664 17.664 0 0 0 0 236.826v133.932c0 19.5 15.81 35.31 35.31 35.31h441.38c19.5 0 35.31-15.81 35.31-35.31V236.826a17.66 17.66 0 0 0-5.173-12.482l-47.793-47.793-56.911-113.822a17.652 17.652 0 0 0-15.793-9.763H117.575a17.655 17.655 0 0 0-16.225 10.699L52.966 176.552z" style="" fill="#ffbc05" data-original="#ffbc05"></path><path d="M0 150.069c0 9.754 7.901 17.655 17.655 17.655h35.31v-17.655c0-9.754-7.901-17.655-17.655-17.655H17.655c-9.754 0-17.655 7.9-17.655 17.655zM459.034 150.069v17.655h35.31c9.754 0 17.655-7.901 17.655-17.655 0-9.754-7.901-17.655-17.655-17.655H476.69c-9.755 0-17.656 7.9-17.656 17.655z" style="" fill="#ffbc05" data-original="#ffbc05"></path><path d="M211.862 406.069H476.69c19.5 0 35.31-15.81 35.31-35.31v-97.262c-76.862 84.55-185.874 132.696-300.138 132.572z" style="" fill="#e38100" data-original="#e38100"></path><path d="m344.276 247.172 26.483 26.483-35.311 97.104H176.552l-35.311-97.104 26.483-26.483zM141.241 370.759l-17.655-44.138H35.31v44.138zM370.759 370.759l17.655-44.138h88.276v44.138z" style="" fill="#2b2733" data-original="#2b2733"></path><path d="M35.31 273.655v-26.483h37.888a35.318 35.318 0 0 1 32.786 22.193l8.775 21.945H52.966c-9.755 0-17.656-7.9-17.656-17.655z" style="" fill="#ededee" data-original="#ededee" class=""></path><path d="M180.959 245.776h17.655v126.392h-17.655z" style="" transform="rotate(167.905 189.787 308.973)" fill="#555160" data-original="#555160"></path><path d="M216.301 247.014h17.647v123.945h-17.647z" style="" transform="scale(-1) rotate(-4.088 -8656.194 6306.82)" fill="#555160" data-original="#555160"></path><path d="M247.172 247.172h17.655v123.586h-17.655z" style="" fill="#555160" data-original="#555160"></path><path d="M224.748 300.171h123.854v17.638H224.748z" style="" transform="rotate(94.071 286.668 308.99)" fill="#555160" data-original="#555160"></path><path d="M259.013 300.181h126.393v17.655H259.013z" style="" transform="rotate(102.122 322.21 309.01)" fill="#555160" data-original="#555160"></path><path d="M341.628 379.586H170.372l-39.345-108.2 33.042-33.042H347.93l33.042 33.042-39.344 108.2zm-158.897-17.655h146.538l31.276-86.007L340.621 256H171.379l-19.924 19.924 31.276 86.007z" style="" fill="#555160" data-original="#555160"></path><path d="M132.414 88.276h247.172l35.311 88.276H97.103z" style="" fill="#23aec8" data-original="#23aec8"></path><path d="M349.175 88.276a353.188 353.188 0 0 1-141.806 88.276h207.528l-35.31-88.276h-30.412z" style="" fill="#1967a3" data-original="#1967a3"></path><path d="M476.69 273.655v-26.483h-37.888a35.318 35.318 0 0 0-32.786 22.193l-8.775 21.945h61.793c9.755 0 17.656-7.9 17.656-17.655z" style="" fill="#ededee" data-original="#ededee" class=""></path><path d="M506.792 137.551a52.91 52.91 0 0 1-47.757 30.173h35.31c9.754 0 17.655-7.91 17.655-17.655a17.696 17.696 0 0 0-5.208-12.518zM47.757 137.551a52.958 52.958 0 0 1-36.476 28.937 17.538 17.538 0 0 0 6.374 1.236h35.31v-17.655a17.633 17.633 0 0 0-5.208-12.518z" style="" fill="#e38100" data-original="#e38100"></path><path d="M102.524 451.725a17.517 17.517 0 0 0 3.407-10.346v-35.31H35.31v9.269a96.841 96.841 0 0 1 67.214 36.387z" style="" fill="#3b3944" data-original="#3b3944"></path><path d="M406.069 406.069v35.31c0 9.754 7.901 17.655 17.655 17.655h35.31c9.754 0 17.655-7.901 17.655-17.655v-35.31h-70.62z" style="" fill="#555160" data-original="#555160"></path><path d="M473.282 451.725a17.517 17.517 0 0 0 3.407-10.346v-35.31h-70.621v9.269a96.84 96.84 0 0 1 67.214 36.387z" style="" fill="#3b3944" data-original="#3b3944"></path></g></svg>